<svg width="235" height="333" viewBox="0 0 235 333" fill="none" xmlns="http://www.w3.org/2000/svg">
<path d="M179 166C177.8 166 177 163.772 177 160.429V93.5712C177 90.2284 177.8 88 179 88C180.2 88 181 90.2284 181 93.5712V160.429C181 163.772 180.2 166 179 166Z" fill="#51656B"/>
<path d="M179.5 202C178 202 177 200.48 177 198.2V186.8C177 184.52 178 183 179.5 183C181 183 182 184.52 182 186.8V198.2C182 200.48 181 202 179.5 202Z" fill="#CBD4D8"/>
<path d="M180 218C173.95 218 169 213.275 169 207.5C169 205.925 170.1 204.875 171.75 204.875C173.4 204.875 174.5 205.925 174.5 207.5C174.5 210.388 176.975 212.75 180 212.75C183.025 212.75 185.5 210.388 185.5 207.5C185.5 204.612 183.025 202.25 180 202.25C178.35 202.25 177.25 201.2 177.25 199.625C177.25 198.05 178.35 197 180 197C186.05 197 191 201.725 191 207.5C191 213.275 186.05 218 180 218Z" fill="#CBD4D8"/>
<path d="M186 187H172V181.2C172 172.5 174.45 164.283 179 158C183.55 164.283 186 172.5 186 181.2V187H186Z" fill="#2C3C42"/>
<path d="M4.99829 320.944H34.5257V190.049V59.1536L24.953 3.69021H14.8904L3.99866 59.1536L3.99847 190.049L4.99829 320.944ZM35.7165 332.132H3.80749C1.89294 332.132 0.616699 329.895 0.616699 326.539V58.0353C0.616699 57.4761 0.616701 56.9163 0.935668 56.3571L11.4657 2.41912C11.7847 0.181153 13.0609 0.503006 14.3375 0.503006H24.8675C26.1438 0.503006 27.4204 0.181152 27.7394 2.41846L38.2694 56.3565C38.2694 56.9156 38.5884 57.4754 38.5884 58.0346V326.538C38.9073 329.895 37.6311 332.132 35.7165 332.132Z" fill="#FF7916"/>
<path d="M3.6199 332.132C2.71891 332.132 2.11813 331.573 1.5177 330.454C0.316486 328.217 1.6167 328.86 2.81791 326.622L33.148 276.75L1.81791 235.912C0.916915 234.793 0.616699 233.115 0.616699 231.437C0.616699 229.758 0.916915 228.08 1.81791 226.961L32.8478 186.683L1.81791 146.405C0.916915 145.286 0.616699 143.607 0.616699 141.929C0.616699 140.251 0.916915 138.573 1.81791 137.453L34.851 94.6996C36.0522 93.0214 35.1548 91.0214 36.0557 93.8187C36.9567 96.0562 36.9567 99.9725 35.455 101.651L4.4251 141.929L35.1548 182.207C35.7555 183.326 36.356 185.005 36.356 186.683C36.356 188.361 36.0558 190.039 35.1548 191.158L4.4251 231.437L35.1548 271.715C35.7555 272.834 36.356 274.512 36.356 276.191C36.356 277.869 36.0557 279.547 35.455 280.666L5.72211 331.014C5.12133 331.573 4.22033 332.132 3.6199 332.132Z" fill="#FF7916"/>
<path d="M35.4289 332.132C34.7958 332.132 33.8464 331.573 33.2137 330.453L1.56613 280.07C0.933054 278.95 0.616699 277.831 0.616699 276.151C0.616699 274.472 0.933053 272.792 1.88248 271.672L31.3654 231.366L1.88248 191.059C0.933053 189.939 0.616699 188.26 0.616699 186.58C0.616699 184.901 0.933053 183.221 1.88248 182.102L34.3654 141.795L1.88248 101.488C0.6167 99.8087 0.299976 95.8902 1.24941 93.6505C2.19883 91.4115 1.41405 92.8512 2.6802 94.5307L37.0114 137.316C37.6444 138.436 38.2772 140.115 38.2772 141.795C38.2772 143.474 37.9608 145.154 37.0114 146.274L4.84484 186.58L34.0114 226.887C34.6444 228.007 38.2772 229.686 38.2772 231.366C38.2772 233.045 34.9608 234.725 34.0114 235.844L4.84484 276.151L34.6441 324.056C35.9099 326.295 38.9099 327.654 37.9604 329.893C37.3277 331.573 36.3783 332.132 35.4289 332.132Z" fill="#FF7916"/>
<path d="M3.66394 90.2433C2.72583 90.2433 1.78771 89.8198 1.16217 88.5488C0.224056 86.4304 2.53664 86.8884 3.78771 85.6175L19.4229 70.7896L35.0582 55.9618C36.6218 54.6908 36.4981 52.1143 37.4362 53.8093C38.3743 55.9277 38.0617 58.4696 36.8106 59.7406L5.54018 89.3963C4.91465 89.8198 4.28911 90.2433 3.66394 90.2433Z" fill="#FF7916"/>
<path d="M35.7107 90C35.0821 90 34.4539 89.5802 33.8254 89.1598L2.40403 59.7575C0.832833 58.4974 0.518741 55.9772 1.77548 53.8769C2.71812 51.7766 1.60341 54.3567 3.17461 55.0367L21.8853 72.7378L37.596 87.4389C39.1672 89.699 39.4813 86.2192 38.2245 88.3196C37.596 89.5802 36.6533 90 35.7107 90Z" fill="#FF7916"/>
<path d="M39.1718 86.6652H230.381L203.216 55.3348H38.1813L39.1718 86.6652ZM229.36 90H40.5529C37.221 90 35 88.7334 35 86.8334V55.1666C35 53.2666 37.221 52 40.5529 52H201.595C203.816 52 205.482 52.6335 206.593 53.9L234.359 85.5669C235.47 86.5169 234.914 87.7834 234.359 88.7334C233.248 89.3669 231.026 90 229.36 90Z" fill="#FF7916"/>
<path d="M178.542 90.2432C176.864 90.2432 178.185 89.9266 177.066 88.9765L133.781 55.4723L93.4959 88.9765C91.2581 90.5602 86.7818 90.5602 84.544 88.9765L39.7827 54.3053C38.1042 53.0385 38.1042 53.8213 40.902 52.8711C43.1398 51.921 44.0568 51.921 45.7354 53.5047L89.0203 87.0089L129.305 53.5047C131.543 51.921 136.019 51.921 138.257 53.5047L183.018 88.1759C184.697 89.4427 184.697 88.6599 181.899 89.61C181.34 89.9266 179.661 90.2432 178.542 90.2432Z" fill="#FF7916"/>
<path d="M44.0775 88.2766C42.9607 88.2766 41.8445 87.9757 40.7277 87.6744C38.4948 86.7712 37.936 87.6637 39.6109 86.4592L84.2747 53.3518C86.5077 51.8463 90.9742 51.8463 93.2072 53.3518L133.404 85.4486L176.602 53.3518C178.276 52.1477 179.184 51.8463 181.418 52.7496C183.651 53.6528 184.21 52.7602 182.535 53.9647L137.871 87.0721C135.638 88.5776 131.171 88.5776 128.938 87.0721L88.7413 54.9754L44.5441 88.0721C43.4273 88.9757 45.7524 88.2766 44.0775 88.2766Z" fill="#FF7916"/>
<path d="M180.858 90.0789C179.746 90.2114 178.046 90.1394 177.458 89.9346C175.105 89.1165 177.466 89.433 179.561 88.0848L208.539 66.2356C210.634 64.8878 210.826 62.3448 213.18 63.1631C215.533 63.9811 216.283 65.5394 214.187 66.8876L185.21 88.7368C184.162 89.4109 182.526 89.8802 180.858 90.0789Z" fill="#FF7916"/>
</svg>
