<svg width="270" height="469" viewBox="0 0 270 469" fill="none" xmlns="http://www.w3.org/2000/svg">
<path d="M51.5 290C53.0001 290 54 284.572 54 276.429V113.571C54 105.428 53.0001 100 51.5 100C49.9999 100 49 105.428 49 113.571V276.429C48.9997 284.572 49.9999 290 51.5 290Z" fill="#51656B"/>
<path d="M51.5 316C53.0001 316 54 314.48 54 312.2V300.8C54 298.52 53.0001 297 51.5 297C49.9999 297 49 298.52 49 300.8V312.2C48.9997 314.48 49.9999 316 51.5 316Z" fill="#CBD4D8"/>
<path d="M51 334C57.05 334 62 328.825 62 322.5C62 320.775 60.9001 319.625 59.2501 319.625C57.6001 319.625 56.5002 320.775 56.5002 322.5C56.5002 325.663 54.0251 328.25 51 328.25C47.9749 328.25 45.4998 325.663 45.4998 322.5C45.4998 319.337 47.9749 316.75 51 316.75C52.65 316.75 53.7499 315.6 53.7499 313.875C53.7499 312.15 52.65 311 51 311C44.9501 311 40 316.175 40 322.5C39.9997 328.825 44.9497 334 51 334Z" fill="#CBD4D8"/>
<path d="M44.5004 300H58.5V294.2C58.5 285.5 56.0502 277.283 51.5 271C46.9502 277.283 44.5 285.5 44.5 294.2V300H44.5004Z" fill="#2C3C42"/>
<path d="M265.203 454.657H235.676V66.1284L247.297 4.47491H253.36L265.203 66.1284L265.203 454.657ZM234.485 468.132H266.394C268.309 468.132 269.585 464.838 269.585 459.895V64.4815C269.585 63.6581 269.585 62.8336 269.266 62.0102L258.784 5.76709C258.465 2.47133 257.189 0 255.913 0H245.383C244.106 0 242.83 2.47133 242.511 5.76612L231.932 62.0092C231.932 62.8327 231.613 63.6571 231.613 64.4805V459.894C231.294 464.838 232.571 468.132 234.485 468.132Z" fill="#F4BA48"/>
<path d="M266.582 468.132C267.483 468.132 268.084 467.28 268.684 465.576C269.885 462.168 265.585 457.055 264.384 453.646L237.054 383.776L268.384 321.574C269.285 319.869 269.585 317.313 269.585 314.757C269.585 312.2 269.285 309.644 268.384 307.94L237.354 246.589L268.384 185.239C269.285 183.535 269.585 180.978 269.585 178.422C269.585 175.866 269.285 173.31 268.384 171.605L234.351 105.438C233.149 102.881 235.047 100.881 234.146 105.142C233.245 108.55 233.245 114.516 234.747 117.072L265.777 178.422L235.047 239.772C234.446 241.477 233.846 244.033 233.846 246.589C233.846 249.146 234.146 251.702 235.047 253.406L265.777 314.757L235.047 376.107C234.446 377.811 233.846 380.368 233.846 382.924C233.846 385.48 234.146 388.036 234.747 389.741L264.48 466.429C265.08 467.28 265.981 468.132 266.582 468.132Z" fill="#F4BA48"/>
<path d="M234.773 468.132C235.406 468.132 236.355 467.28 236.988 465.574L268.636 388.832C269.269 387.127 269.585 385.422 269.585 382.864C269.585 380.306 269.269 377.748 268.319 376.042L234.836 314.648L268.319 253.255C269.269 251.549 269.585 248.991 269.585 246.433C269.585 243.875 269.269 241.317 268.319 239.611L234.836 178.218L268.319 116.824C269.585 114.266 269.902 108.297 268.952 104.886C268.003 101.476 270.788 100.622 269.522 103.18L233.19 171.396C232.557 173.101 231.925 175.66 231.925 178.218C231.925 180.776 232.241 183.334 233.19 185.039L266.357 246.433L233.19 307.827C232.557 309.532 231.925 312.09 231.925 314.648C231.925 317.206 232.241 319.764 233.19 321.47L266.357 382.864L237.558 452.784C236.292 456.194 231.292 461.31 232.241 464.722C232.874 467.28 233.823 468.132 234.773 468.132Z" fill="#F4BA48"/>
<path d="M265.882 103.66C266.82 103.66 267.758 103.236 268.384 101.965C269.322 99.8469 267.01 99.305 265.758 98.034L234.488 68.3783C232.924 67.1074 233.048 65.5308 232.11 67.2258C231.172 69.3442 231.484 71.8862 232.736 73.1571L264.006 102.813C264.631 103.236 265.257 103.66 265.882 103.66Z" fill="#F4BA48"/>
<path d="M234.257 103.66C234.897 103.66 235.536 103.24 236.176 102.819L268.156 73.401C269.755 72.1402 270.075 69.6186 268.796 67.5172C267.837 65.4157 267.918 67.9956 266.319 69.6765L234.338 99.0946C232.739 100.355 230.419 99.8769 231.698 101.978C232.338 103.24 233.298 103.66 234.257 103.66Z" fill="#F4BA48"/>
<path d="M231.704 99.3232H6.95747L38.167 68.9758H231.704V99.3232ZM7.47382 103.66H230.256C234.188 103.66 234.809 102.393 234.809 100.492V68.8076C232.809 66.9065 234.188 65.6393 230.256 65.6393H40.2355C37.6148 65.6393 35.6491 66.2731 34.3383 67.5403L1.57588 99.2243C0.265137 100.175 0.920898 101.442 1.57588 102.393C2.88663 103.026 5.50809 103.66 7.47382 103.66Z" fill="#F4BA48"/>
<path d="M66.3755 103.66C68.3338 103.66 67.2921 103.343 68.5979 102.393L118.597 68.8888L165.596 102.393C168.207 103.977 173.429 103.977 176.04 102.393L228.261 67.7218C230.22 66.4551 230.22 67.2378 226.956 66.2877C224.345 65.3376 222.775 65.3376 220.817 66.9213L170.818 100.425L123.819 66.9213C121.208 65.3376 115.985 65.3376 113.375 66.9213L61.1531 101.592C59.1948 102.859 59.1948 102.076 62.4589 103.027C63.1114 103.343 65.0697 103.66 66.3755 103.66Z" fill="#F4BA48"/>
<path d="M223.247 101.693C224.551 101.693 225.854 101.392 227.157 101.091C229.764 100.188 230.416 101.08 228.461 99.8758L176.32 66.7684C173.713 65.2629 168.499 65.2629 165.892 66.7684L118.965 98.8652L68.0377 66.7684C66.0824 65.5642 65.5203 65.2629 62.9127 66.1661C60.3059 67.0694 59.6536 66.1768 61.6089 67.3813L113.75 100.489C116.357 101.994 121.572 101.994 124.178 100.489L171.105 68.3919L222.032 100.489C223.336 101.392 221.292 101.693 223.247 101.693Z" fill="#F4BA48"/>
<path d="M65.4576 102.456C66.7611 102.583 68.7424 102.502 69.4203 102.294C72.1322 101.462 68.8553 101.699 66.3539 100.359L31.6313 78.625C29.1306 77.2859 29.3346 74.8322 26.6219 75.6643C23.91 76.4961 23.0994 78.061 25.6008 79.4005L60.3234 101.135C61.5741 101.804 63.5027 102.266 65.4576 102.456Z" fill="#F4BA48"/>
</svg>
